<?xml version="1.0" standalone="no"?>
<!DOCTYPE svg PUBLIC "-//W3C//DTD SVG 20010904//EN"
 "http://www.w3.org/TR/2001/REC-SVG-20010904/DTD/svg10.dtd">
<svg version="1.0" xmlns="http://www.w3.org/2000/svg"
 width="48.000000pt" height="48.000000pt" viewBox="0 0 48.000000 48.000000"
 preserveAspectRatio="xMidYMid meet">

<g transform="translate(0.000000,48.000000) scale(0.100000,-0.100000)"
fill="#000000" stroke="none">
<path d="M133 439 c-88 -34 -123 -95 -123 -214 1 -136 76 -205 224 -205 111 0
202 62 227 153 21 79 -6 192 -58 239 -56 51 -177 63 -270 27z m206 -84 c16 -8
31 -22 35 -30 18 -48 -7 -145 -43 -164 -9 -5 -47 -8 -86 -7 -66 1 -70 2 -79
28 -15 41 18 116 58 133 20 9 37 10 48 4 9 -5 24 -6 32 -3 20 8 20 12 -4 -66
-23 -76 -14 -98 26 -59 16 16 28 42 31 67 5 34 1 44 -20 66 -21 21 -36 26 -74
26 -81 0 -130 -41 -140 -116 -10 -79 66 -129 160 -106 50 13 72 -1 26 -17 -79
-27 -166 -6 -194 49 -32 61 -14 134 45 184 26 22 41 26 91 26 33 0 73 -7 88
-15z"/>
<path d="M211 274 c-26 -33 -28 -92 -4 -101 26 -10 63 41 63 88 0 32 -3 39
-19 39 -11 0 -29 -12 -40 -26z"/>
</g>
</svg>
